<svg width="144" height="39" viewBox="0 0 144 39" fill="none" xmlns="http://www.w3.org/2000/svg">
<path fill-rule="evenodd" clip-rule="evenodd" d="M130.496 15.654C131.336 15.654 132.101 15.8268 132.793 16.1725C133.32 16.4266 133.764 16.7884 134.126 17.2577V15.7465H135.811V24.2274C135.811 25.9557 135.379 27.2272 134.515 28.042C133.651 28.8567 132.385 29.2642 130.719 29.2642C129.818 29.2642 128.941 29.1344 128.089 28.8752C127.25 28.6283 126.565 28.2703 126.034 27.8012L126.886 26.431C127.342 26.826 127.904 27.1346 128.571 27.3568C129.237 27.5913 129.935 27.7086 130.663 27.7086C131.824 27.7086 132.675 27.4371 133.219 26.8939C133.762 26.3507 134.033 25.5236 134.033 24.4126V23.6312C133.689 24.05 133.276 24.3848 132.793 24.6349C132.101 24.9805 131.336 25.1532 130.496 25.1532C129.546 25.1532 128.694 24.9558 127.941 24.5608C127.201 24.1534 126.608 23.5917 126.164 22.8757C125.731 22.1597 125.515 21.3325 125.515 20.3943C125.515 19.4438 125.731 18.6167 126.164 17.913C126.608 17.197 127.201 16.6414 127.941 16.2464C128.694 15.8514 129.546 15.654 130.496 15.654ZM130.7 17.2093C130.046 17.2093 129.46 17.3452 128.941 17.6168C128.435 17.876 128.034 18.2463 127.737 18.7277C127.453 19.2092 127.312 19.7648 127.312 20.3943C127.312 21.0239 127.453 21.5795 127.737 22.0609C128.034 22.5424 128.435 22.9188 128.941 23.1904C129.46 23.462 130.046 23.5978 130.7 23.5978C131.355 23.5978 131.935 23.4619 132.441 23.1904C132.947 22.9188 133.342 22.5424 133.626 22.0609C133.922 21.5795 134.07 21.0239 134.07 20.3943C134.07 19.7648 133.922 19.2092 133.626 18.7277C133.342 18.2463 132.947 17.876 132.441 17.6168C131.935 17.3452 131.355 17.2093 130.7 17.2093Z" fill="white"/>
<path d="M60.3037 13.8578L56.9097 18.0384C58.087 18.1404 58.9961 18.4813 59.6369 19.0611C60.427 19.7647 60.8222 20.6597 60.8222 21.7461C60.8222 22.4744 60.6432 23.1411 60.2852 23.746C59.9272 24.3509 59.3839 24.8323 58.6555 25.1903C57.9395 25.536 57.0261 25.7088 55.9151 25.7089C55.0016 25.7089 54.1127 25.5668 53.2486 25.2829C52.3968 24.999 51.6992 24.6163 51.1561 24.1348L52.008 22.672C52.44 23.0794 53.0018 23.4127 53.693 23.6719C54.3843 23.9311 55.1251 24.0607 55.9151 24.0607C56.878 24.0607 57.6249 23.857 58.1557 23.4496C58.6988 23.0299 58.9704 22.4682 58.9704 21.7645C58.9704 21.0856 58.7111 20.5424 58.1926 20.1351C57.6865 19.7154 56.8779 19.5055 55.7669 19.5055H54.7299V18.2092L57.9798 14.2095H51.7487V12.5985H60.3037V13.8578Z" fill="white"/>
<path d="M71.929 12.4505C72.6821 12.4505 73.4291 12.5492 74.1698 12.7467C74.9105 12.9442 75.5523 13.2282 76.0955 13.5986L75.4844 15.0798C74.9289 14.7095 74.3426 14.444 73.7254 14.2836C73.1081 14.1107 72.5092 14.0243 71.929 14.0243C71.2007 14.0243 70.602 14.1169 70.1329 14.302C69.6638 14.4872 69.3183 14.7343 69.0961 15.0429C68.8862 15.3515 68.7812 15.6971 68.7812 16.0797C68.7812 16.5365 68.9232 16.9008 69.2071 17.1724C69.5034 17.4439 69.88 17.6599 70.3367 17.8204C70.8058 17.9809 71.3181 18.129 71.8736 18.2648C72.4291 18.3883 72.9847 18.5303 73.5402 18.6908C74.108 18.8513 74.6204 19.0611 75.0771 19.3203C75.5462 19.5796 75.9228 19.9253 76.2067 20.3574C76.4906 20.7894 76.6324 21.3449 76.6325 22.0238C76.6325 22.6781 76.4535 23.2892 76.0955 23.8571C75.7375 24.4126 75.182 24.8632 74.429 25.2088C73.6884 25.5421 72.7501 25.7089 71.6143 25.7089C70.6268 25.7089 69.6823 25.5607 68.7812 25.2644C67.88 24.9558 67.1702 24.5606 66.6517 24.0792L67.3369 22.6349C67.8307 23.067 68.4602 23.425 69.2256 23.7089C69.991 23.9928 70.7872 24.1348 71.6143 24.1348C72.3674 24.1348 72.9785 24.0484 73.4476 23.8756C73.9167 23.7027 74.2623 23.4681 74.4845 23.1719C74.7067 22.8633 74.8178 22.5175 74.8178 22.1349C74.8178 21.6905 74.6697 21.3324 74.3734 21.0609C74.0895 20.7893 73.7129 20.5733 73.2438 20.4128C72.7871 20.24 72.2809 20.0918 71.7254 19.9684C71.1699 19.845 70.6082 19.7029 70.0403 19.5425C69.4848 19.3696 68.9725 19.1536 68.5034 18.8944C68.0467 18.6352 67.6764 18.2894 67.3925 17.8574C67.1086 17.413 66.9666 16.8451 66.9666 16.1538C66.9666 15.4872 67.1394 14.8762 67.4851 14.3207C67.8431 13.7529 68.3862 13.3023 69.1145 12.969C69.8552 12.6233 70.7934 12.4505 71.929 12.4505Z" fill="white"/>
<path d="M80.745 15.7465H83.5597V17.2093H80.745V22.5238C80.745 23.0547 80.8748 23.4621 81.134 23.746C81.4056 24.0299 81.7883 24.1718 82.2821 24.1718C82.8376 24.1718 83.3005 24.0175 83.6708 23.7089L84.2262 24.9867C83.9547 25.2212 83.6275 25.3939 83.2448 25.505C82.8745 25.6161 82.4856 25.6717 82.0783 25.6717C81.0907 25.6717 80.3254 25.4063 79.7823 24.8754C79.2391 24.3446 78.9674 23.5855 78.9674 22.5979V17.2093H77.3009V15.7465H78.9674V13.5986H80.745V15.7465Z" fill="white"/>
<path fill-rule="evenodd" clip-rule="evenodd" d="M89.5789 15.654C90.9245 15.654 91.9615 15.9811 92.6898 16.6354C93.4181 17.2896 93.7825 18.2895 93.7825 19.635V25.5606H92.0974V24.2724C91.858 24.6297 91.5311 24.9297 91.116 25.1719C90.5234 25.5052 89.7766 25.6717 88.8754 25.6717C88.1471 25.6717 87.5051 25.5483 86.9496 25.3014C86.4064 25.0545 85.9867 24.7151 85.6904 24.283C85.3941 23.8386 85.246 23.3386 85.246 22.7831C85.246 22.2523 85.3694 21.7708 85.6163 21.3388C85.8755 20.9067 86.2891 20.561 86.857 20.3018C87.4372 20.0425 88.2149 19.913 89.1901 19.913H92.0048V19.5611C92.0048 18.8316 91.7962 18.2643 91.3792 17.8591L91.297 17.7817C90.865 17.3878 90.2244 17.1908 89.3753 17.1908C88.7951 17.1908 88.2272 17.2895 87.6717 17.4871C87.1162 17.6722 86.647 17.9254 86.2644 18.2464L85.5237 16.9131C86.0299 16.5057 86.6347 16.197 87.3383 15.9871C88.0543 15.7649 88.8012 15.654 89.5789 15.654ZM89.2642 21.1906C88.3754 21.1906 87.7767 21.3387 87.4681 21.635C87.1594 21.9313 87.0052 22.2893 87.0052 22.709C87.0052 23.1904 87.1964 23.5793 87.5791 23.8756C87.9618 24.1595 88.4927 24.3015 89.1716 24.3015C89.8382 24.3015 90.4184 24.1533 90.9121 23.8571C91.4183 23.5608 91.7826 23.1287 92.0048 22.5608V21.1906H89.2642Z" fill="white"/>
<path fill-rule="evenodd" clip-rule="evenodd" d="M45.106 12.5985C46.2417 12.5985 47.2107 12.7775 48.0131 13.1355C48.8155 13.4935 49.4328 14.0121 49.8649 14.691C50.297 15.37 50.5131 16.1785 50.5131 17.1167C50.5131 18.0549 50.2969 18.8635 49.8649 19.5425C49.4328 20.2091 48.8155 20.7215 48.0131 21.0795C47.8989 21.1305 47.7809 21.1771 47.6599 21.2209L50.7352 25.5606H48.7168L45.929 21.5825C45.6652 21.605 45.3909 21.6165 45.106 21.6165H41.9025V25.5606H40.0508V12.5985H45.106ZM41.9025 20.0425H45.0504C46.2355 20.0425 47.1305 19.7893 47.7354 19.2832C48.3526 18.7647 48.6614 18.0426 48.6614 17.1167C48.6614 16.1909 48.3526 15.4749 47.7354 14.9688C47.1305 14.4626 46.2355 14.2095 45.0504 14.2095H41.9025V20.0425Z" fill="white"/>
<path d="M106.359 11.7096C106.742 11.7096 107.106 11.7591 107.452 11.8579C107.81 11.9443 108.112 12.0863 108.359 12.2838L107.822 13.6355C107.637 13.4874 107.427 13.3762 107.193 13.3022C106.958 13.2157 106.711 13.1726 106.452 13.1726C105.933 13.1726 105.538 13.3208 105.267 13.617C104.995 13.901 104.859 14.3268 104.859 14.8947V15.7465H107.711V17.2093H104.896V25.5606H103.119V17.2093H98.7387V25.5606H96.961V17.2093H95.2944V15.7465H96.961V14.8762C96.961 13.9133 97.2387 13.1479 97.7942 12.58C98.3621 11.9998 99.1645 11.7097 100.201 11.7096C100.584 11.7096 100.948 11.7591 101.294 11.8579C101.652 11.9443 101.955 12.0863 102.201 12.2838L101.664 13.6355C101.479 13.4874 101.269 13.3762 101.035 13.3022C100.8 13.2157 100.553 13.1726 100.294 13.1726C99.7756 13.1726 99.3805 13.3208 99.109 13.617C98.8374 13.901 98.7017 14.3268 98.7017 14.8947V15.7465H103.119V14.8762C103.119 13.9133 103.396 13.1479 103.952 12.58C104.52 11.9998 105.322 11.7097 106.359 11.7096Z" fill="white"/>
<path d="M111.174 25.5606H109.396V15.7465H111.174V25.5606Z" fill="white"/>
<path d="M119.429 15.654C120.232 15.654 120.935 15.8083 121.54 16.1169C122.158 16.4255 122.639 16.8946 122.985 17.5242C123.33 18.1538 123.503 18.9501 123.503 19.913V25.5606H121.725V20.1166C121.725 19.1661 121.491 18.4501 121.022 17.9686C120.565 17.4872 119.917 17.2465 119.078 17.2465C118.448 17.2465 117.899 17.3699 117.429 17.6168C116.96 17.8637 116.596 18.2278 116.337 18.7093C116.09 19.1907 115.967 19.7894 115.967 20.5054V25.5606H114.189V15.7465H115.893V17.2296C116.198 16.8043 116.599 16.4581 117.096 16.191C117.763 15.833 118.541 15.654 119.429 15.654Z" fill="white"/>
<path d="M110.285 11.543C110.63 11.543 110.915 11.6541 111.137 11.8763C111.371 12.0862 111.489 12.3516 111.489 12.6726C111.489 13.0059 111.377 13.2899 111.155 13.5245C110.933 13.7466 110.643 13.8578 110.285 13.8578C109.939 13.8578 109.649 13.7466 109.415 13.5245C109.192 13.3023 109.081 13.0307 109.081 12.7097C109.081 12.3764 109.192 12.0985 109.415 11.8763C109.649 11.6542 109.939 11.543 110.285 11.543Z" fill="white"/>
<path d="M22.0025 25.5541C22.296 25.9764 22.2898 26.5383 21.9871 26.954L18.7788 31.3606C18.232 32.1117 17.0772 31.9897 16.6993 31.1409L11.6359 19.7682C11.2803 18.9696 11.8649 18.0694 12.7391 18.0694H14.8718C15.2738 18.0694 15.6666 18.0595 16.0502 18.0396C16.482 18.0173 16.8997 18.2107 17.1464 18.5658L22.0025 25.5541Z" fill="white"/>
<path d="M32.5536 9.36046C33.4794 9.45683 33.9527 10.52 33.4049 11.2725L25.8235 21.685C25.3362 22.3543 24.3351 22.3459 23.8591 21.6684L21.1914 17.8721C20.9397 17.5139 21.0973 17.0149 21.4965 16.8352C23.325 16.0125 24.7315 14.8351 25.716 13.3031C26.3325 12.3261 26.7557 11.2325 26.9861 10.022C27.1128 9.3562 27.7049 8.85573 28.379 8.9259L32.5536 9.36046Z" fill="white"/>
<path d="M21.7899 8.24016C22.4375 8.30757 22.9283 8.88063 22.7835 9.51546C22.4884 10.809 21.8486 11.8729 20.8636 12.7073C19.4852 13.8705 17.4457 14.4522 14.7452 14.4522H10.0532C9.57621 14.4522 9.14393 14.1714 8.94993 13.7357L6.61014 8.48042C6.23225 7.63164 6.91429 6.69188 7.83841 6.78806L21.7899 8.24016Z" fill="white"/>
</svg>
